#!OML:ASF X:\für Bonn\!DataBase\2005_08_12_Daniel\c3d\Daniel.ASF
:FULLY-SPECIFIED
:DEGREES
154
root 2.84464 15.6587 5.41052 888.348 -38.9364 -899.75
lowerback 35.5874 -3.51757 2.20624
upperback 9.42207 -6.02251 -1.9
thorax -7.66023 -3.71709 -0.800907
lowerneck -3.06289 4.08937 -1.44086
upperneck -0.719869 5.48972 -1.52683
head 0.282287 2.73168 -0.166933
rclavicle -1.16488e-013 6.44062e-014
rhumerus -45.9369 1.64519 -90.0625
rradius 69.6944
rwrist 2.98241
rhand -28.9922 12.1914
rfingers 7.12502
rthumb -2.34418 -17.7754
lclavicle -1.16488e-013 6.44062e-014
lhumerus -25.3013 13.6981 86.9558
lradius 80.4299
lwrist -8.57575
lhand -27.7407 1.49947
lfingers 7.12502
lthumb -1.13543 31.4762
rfemur -36.279 10.8171 21.2799
rtibia 39.6116
rfoot -6.04782 -1.47896
rtoes -5.9026
lfemur 17.2081 8.60681 -20.8131
ltibia 50.4738
lfoot -38.0949 -6.89311
ltoes -2.52245
155
root 2.73972 15.6229 5.296 888.447 -38.9205 -899.346
lowerback 35.5663 -3.6879 2.65162
upperback 9.39646 -6.05415 -1.71054
thorax -7.68991 -3.73141 -0.820703
lowerneck -3.55048 4.13069 -1.42437
upperneck -0.518371 5.55665 -1.63789
head 0.427851 2.75873 -0.187914
rclavicle 3.39922e-014 -8.18993e-014
rhumerus -45.7664 1.57516 -89.8883
rradius 69.5516
rwrist 3.00536
rhand -29.0149 12.2742
rfingers 7.12502
rthumb -2.36614 -17.6924
lclavicle 3.39922e-014 -8.18993e-014
lhumerus -25.2105 13.7249 87.1101
lradius 80.5294
lwrist -8.66639
lhand -27.8875 1.47944
lfingers 7.12502
lthumb -1.27728 31.4554
rfemur -36.9482 10.4062 21.7122
rtibia 40.7432
rfoot -5.73902 -1.13439
rtoes -6.14657
lfemur 17.4802 8.12169 -20.7672
ltibia 50.2973
lfoot -37.7597 -6.76083
ltoes -2.24262
156
root 2.62841 15.6307 5.17835 888.547 -38.8812 -898.973
lowerback 35.5038 -3.84763 3.02526
upperback 9.39857 -6.10355 -1.49557
thorax -7.66638 -3.75765 -0.774122
lowerneck -3.94515 4.19543 -1.48871
upperneck -0.42555 5.65382 -1.73505
head 0.522948 2.802 -0.194902
rclavicle -5.10877e-014 1.43125e-014
rhumerus -45.474 1.61061 -89.6961
rradius 69.2537
rwrist 2.98495
rhand -28.9984 12.4824
rfingers 7.12502
rthumb -2.35018 -17.4844
lclavicle -5.10877e-014 1.43125e-014
lhumerus -25.1125 13.8787 87.2605
lradius 80.5765
lwrist -8.80437
lhand -27.9941 1.39109
lfingers 7.12502
lthumb -1.38021 31.3664
rfemur -37.3585 10.1038 22.1023
rtibia 41.7395
rfoot -5.61169 -0.770025
rtoes -6.53583
lfemur 17.8179 7.66699 -20.7667
ltibia 49.9624
lfoot -37.3092 -6.53297
ltoes -2.04319
157
root 2.5159 15.643 5.05905 888.626 -38.8417 -898.531
lowerback 35.4129 -4.01154 3.43171
upperback 9.3878 -6.14275 -1.25526
thorax -7.64524 -3.77831 -0.722934
lowerneck -4.20431 4.27176 -1.57699
upperneck -0.373674 5.76504 -1.82821
head 0.582494 2.85349 -0.200135
rclavicle 5.06901e-014 -3.57812e-015
rhumerus -45.1647 1.64686 -89.4516
rradius 68.9485
rwrist 2.95803
rhand -28.9754 12.7109
rfingers 7.12502
rthumb -2.32798 -17.2561
lclavicle 5.06901e-014 -3.57812e-015
lhumerus -25.0342 13.9211 87.3677
lradius 80.6137
lwrist -8.85337
lhand -28.1212 1.54089
lfingers 7.12502
lthumb -1.50297 31.5153
rfemur -37.7573 9.91126 22.5213
rtibia 42.704
rfoot -5.51415 -0.53865
rtoes -6.60138
lfemur 18.1292 7.26915 -20.6772
ltibia 49.5876
lfoot -36.8314 -6.22653
ltoes -2.39709
158
root 2.40366 15.6556 4.94237 888.714 -38.8444 -898.124
lowerback 35.3233 -4.17635 3.82746
upperback 9.36825 -6.18724 -1.02381
thorax -7.63441 -3.80077 -0.67279
lowerneck -4.23803 4.31608 -1.61034
upperneck -0.437334 5.82437 -1.96821
head 0.571955 2.88129 -0.236106
rclavicle 1.66979e-014 -3.18055e-015
rhumerus -44.9809 1.72086 -89.1736
rradius 68.7777
rwrist 2.8964
rhand -28.9032 12.7686
rfingers 7.12502
rthumb -2.25826 -17.1992
lclavicle 1.66979e-014 -3.18055e-015
lhumerus -24.9717 13.9327 87.4596
lradius 80.5367
lwrist -8.95527
lhand -28.2075 1.50465
lfingers 7.12502
lthumb -1.58629 31.4785
rfemur -38.075 9.5973 22.931
rtibia 43.5342
rfoot -5.39116 -0.270697
rtoes -6.74304
lfemur 18.4237 6.95232 -20.577
ltibia 49.14
lfoot -36.1963 -5.92896
ltoes -2.71728
159
root 2.2882 15.6683 4.82424 888.787 -38.8156 -897.777
lowerback 35.2164 -4.33584 4.22454
upperback 9.39176 -6.24366 -0.86573
thorax -7.57887 -3.83121 -0.699117
lowerneck -4.21845 4.3967 -1.52438
upperneck -0.512368 5.92609 -2.13804
head 0.553917 2.93083 -0.300853
rclavicle 5.08889e-014 -3.81667e-014
rhumerus -44.7089 1.68245 -88.9873
rradius 68.5696
rwrist 2.91745
rhand -28.8788 12.8743
rfingers 7.12502
rthumb -2.23469 -17.0938
lclavicle 5.08889e-014 -3.81667e-014
lhumerus -25.0035 13.8899 87.4655
lradius 80.5135
lwrist -9.08757
lhand -28.3332 1.46832
lfingers 7.12502
lthumb -1.70775 31.4412
rfemur -38.3252 9.33622 23.3175
rtibia 44.3524
rfoot -5.24617 -0.0843577
rtoes -6.85611
lfemur 18.7859 6.7278 -20.4776
ltibia 48.6907
lfoot -35.4509 -5.64441
ltoes -3.34174
160
root 2.17381 15.6812 4.70406 888.868 -38.8143 -897.446
lowerback 35.1274 -4.51976 4.59091
upperback 9.35671 -6.33057 -0.732727
thorax -7.59697 -3.87086 -0.719346
lowerneck -3.92444 4.49171 -1.37834
upperneck -0.690872 6.03699 -2.35622
head 0.462503 2.98839 -0.397794
rclavicle -2.94201e-014 3.93594e-014
rhumerus -44.5757 1.63249 -88.8589
rradius 68.3694
rwrist 2.91136
rhand -28.8236 13.0017
rfingers 7.12502
rthumb -2.18134 -16.9669
lclavicle -2.94201e-014 3.93594e-014
lhumerus -25.2322 13.8781 87.3799
lradius 80.5094
lwrist -9.1843
lhand -28.4074 1.37946
lfingers 7.12502
lthumb -1.77938 31.3518
rfemur -38.5746 9.09132 23.6857
rtibia 45.1633
rfoot -5.11216 0.0663557
rtoes -6.60485
lfemur 19.1036 6.52048 -20.3495
ltibia 48.2923
lfoot -34.5286 -5.47607
ltoes -3.49312
